<svg xmlns="http://www.w3.org/2000/svg" viewBox="0 0 1600 900" role="img" aria-labelledby="title desc">
  <title id="title">黏土定格游戏美术 palette card</title>
  <desc id="desc">以真实手工搭建的黏土角色、焊接金属、布料和微缩木工为基础，保留指痕、接缝、模型尺度和定格动画般的逐帧生命感。</desc>
  <rect width="1600" height="900" fill="#10151D"/>
  <circle cx="1280" cy="240" r="250" fill="#98594A" opacity="0.85"/>
  <circle cx="1030" cy="360" r="190" fill="#526B78" opacity="0.85"/>
  <path d="M0 520 C280 360 510 690 800 500 S1260 330 1600 520 V900 H0 Z" fill="#DED2B6" opacity="0.9"/>
  <path d="M0 640 C280 520 530 760 880 610 S1260 520 1600 680 V900 H0 Z" fill="#B58A4E" opacity="0.9"/>
  <rect x="80" y="600" width="248" height="150" rx="18" fill="#98594A"/><text x="98" y="730" font-family="sans-serif" font-size="22" fill="#ffffff">rust</text><rect x="368" y="600" width="248" height="150" rx="18" fill="#526B78"/><text x="386" y="730" font-family="sans-serif" font-size="22" fill="#ffffff">denim</text><rect x="656" y="600" width="248" height="150" rx="18" fill="#DED2B6"/><text x="674" y="730" font-family="sans-serif" font-size="22" fill="#ffffff">cream</text><rect x="944" y="600" width="248" height="150" rx="18" fill="#B58A4E"/><text x="962" y="730" font-family="sans-serif" font-size="22" fill="#ffffff">ochre</text><rect x="1232" y="600" width="248" height="150" rx="18" fill="#30363B"/><text x="1250" y="730" font-family="sans-serif" font-size="22" fill="#ffffff">soot</text>
  <text x="80" y="120" font-family="sans-serif" font-size="52" font-weight="700" fill="#F5F1E8">黏土定格游戏美术</text>
  <text x="80" y="175" font-family="sans-serif" font-size="24" fill="#C8D0D8">版权安全的抽象色板卡 · 可替换为已获授权的代表图</text>
</svg>
