<svg xmlns="http://www.w3.org/2000/svg" viewBox="0 0 1600 900" role="img" aria-labelledby="title desc">
  <title id="title">阿尔泰米西娅·真蒂莱斯基 palette card</title>
  <desc id="desc">写实油画与大胆的肉身造型；人物以强烈对角线和近距离动作挤压画面，形成有力的叙事瞬间；深黑、血红、赭金、钴蓝与象牙白形成高对比巴洛克色组。</desc>
  <rect width="1600" height="900" fill="#10151D"/>
  <circle cx="1280" cy="240" r="250" fill="#6E2525" opacity="0.85"/>
  <circle cx="1030" cy="360" r="190" fill="#B88945" opacity="0.85"/>
  <path d="M0 520 C280 360 510 690 800 500 S1260 330 1600 520 V900 H0 Z" fill="#273E63" opacity="0.9"/>
  <path d="M0 640 C280 520 530 760 880 610 S1260 520 1600 680 V900 H0 Z" fill="#E5D7B8" opacity="0.9"/>
  <rect x="80" y="600" width="248" height="150" rx="18" fill="#6E2525"/><text x="98" y="730" font-family="sans-serif" font-size="22" fill="#ffffff">深红</text><rect x="368" y="600" width="248" height="150" rx="18" fill="#B88945"/><text x="386" y="730" font-family="sans-serif" font-size="22" fill="#ffffff">赭金</text><rect x="656" y="600" width="248" height="150" rx="18" fill="#273E63"/><text x="674" y="730" font-family="sans-serif" font-size="22" fill="#ffffff">靛蓝</text><rect x="944" y="600" width="248" height="150" rx="18" fill="#E5D7B8"/><text x="962" y="730" font-family="sans-serif" font-size="22" fill="#ffffff">骨白</text><rect x="1232" y="600" width="248" height="150" rx="18" fill="#1D1B1B"/><text x="1250" y="730" font-family="sans-serif" font-size="22" fill="#ffffff">墨黑</text>
  <text x="80" y="120" font-family="sans-serif" font-size="52" font-weight="700" fill="#F5F1E8">阿尔泰米西娅·真蒂莱斯基</text>
  <text x="80" y="175" font-family="sans-serif" font-size="24" fill="#C8D0D8">版权安全的抽象色板卡 · 可替换为已获授权的代表图</text>
</svg>
