<svg xmlns="http://www.w3.org/2000/svg" viewBox="0 0 1600 900" role="img" aria-labelledby="title desc">
  <title id="title">塔玛拉·德·兰佩卡 palette card</title>
  <desc id="desc">以装饰艺术时期的几何构形、金属般清晰的体积、冷峻优雅的人物和高对比色面组织现代肖像与静物。</desc>
  <rect width="1600" height="900" fill="#10151D"/>
  <circle cx="1280" cy="240" r="250" fill="#1D2027" opacity="0.85"/>
  <circle cx="1030" cy="360" r="190" fill="#E7DFCC" opacity="0.85"/>
  <path d="M0 520 C280 360 510 690 800 500 S1260 330 1600 520 V900 H0 Z" fill="#2F6D61" opacity="0.9"/>
  <path d="M0 640 C280 520 530 760 880 610 S1260 520 1600 680 V900 H0 Z" fill="#355A9B" opacity="0.9"/>
  <rect x="80" y="600" width="248" height="150" rx="18" fill="#1D2027"/><text x="98" y="730" font-family="sans-serif" font-size="22" fill="#ffffff">black</text><rect x="368" y="600" width="248" height="150" rx="18" fill="#E7DFCC"/><text x="386" y="730" font-family="sans-serif" font-size="22" fill="#ffffff">ivory</text><rect x="656" y="600" width="248" height="150" rx="18" fill="#2F6D61"/><text x="674" y="730" font-family="sans-serif" font-size="22" fill="#ffffff">emerald</text><rect x="944" y="600" width="248" height="150" rx="18" fill="#355A9B"/><text x="962" y="730" font-family="sans-serif" font-size="22" fill="#ffffff">cobalt</text><rect x="1232" y="600" width="248" height="150" rx="18" fill="#9E3D45"/><text x="1250" y="730" font-family="sans-serif" font-size="22" fill="#ffffff">crimson</text>
  <text x="80" y="120" font-family="sans-serif" font-size="52" font-weight="700" fill="#F5F1E8">塔玛拉·德·兰佩卡</text>
  <text x="80" y="175" font-family="sans-serif" font-size="24" fill="#C8D0D8">版权安全的抽象色板卡 · 可替换为已获授权的代表图</text>
</svg>
