<svg xmlns="http://www.w3.org/2000/svg" viewBox="0 0 1600 900" role="img" aria-labelledby="title desc">
  <title id="title">体素世界游戏美术 palette card</title>
  <desc id="desc">以可拆分、可堆叠的立方体体素作为场景基本单位，强调模块化地形、块面光照和从局部方块到整体景观的尺度一致性。</desc>
  <rect width="1600" height="900" fill="#10151D"/>
  <circle cx="1280" cy="240" r="250" fill="#8A5A3B" opacity="0.85"/>
  <circle cx="1030" cy="360" r="190" fill="#6A923F" opacity="0.85"/>
  <path d="M0 520 C280 360 510 690 800 500 S1260 330 1600 520 V900 H0 Z" fill="#8A8D84" opacity="0.9"/>
  <path d="M0 640 C280 520 530 760 880 610 S1260 520 1600 680 V900 H0 Z" fill="#4F91AF" opacity="0.9"/>
  <rect x="80" y="600" width="248" height="150" rx="18" fill="#8A5A3B"/><text x="98" y="730" font-family="sans-serif" font-size="22" fill="#ffffff">dirt</text><rect x="368" y="600" width="248" height="150" rx="18" fill="#6A923F"/><text x="386" y="730" font-family="sans-serif" font-size="22" fill="#ffffff">grass</text><rect x="656" y="600" width="248" height="150" rx="18" fill="#8A8D84"/><text x="674" y="730" font-family="sans-serif" font-size="22" fill="#ffffff">stone</text><rect x="944" y="600" width="248" height="150" rx="18" fill="#4F91AF"/><text x="962" y="730" font-family="sans-serif" font-size="22" fill="#ffffff">water</text><rect x="1232" y="600" width="248" height="150" rx="18" fill="#B27B45"/><text x="1250" y="730" font-family="sans-serif" font-size="22" fill="#ffffff">wood</text>
  <text x="80" y="120" font-family="sans-serif" font-size="52" font-weight="700" fill="#F5F1E8">体素世界游戏美术</text>
  <text x="80" y="175" font-family="sans-serif" font-size="24" fill="#C8D0D8">版权安全的抽象色板卡 · 可替换为已获授权的代表图</text>
</svg>
